# xmcd
#
# Track frame offsets: 
#        150
#        19847
#        42220
#        60992
#        87562
#        110890
#        130392
#        155730
#        175207
#        198825
#
# Disc length: 2957 seconds
#
# Revision: 1
# Processed by: cddbd v1.5.2PL0 Copyright (c) Steve Scherf et al.
# Submitted via: ExactAudioCopy v1.0b3
#
DISCID=880b8b0a
DTITLE=Shirley Brown - Diva Of Soul
DYEAR=1995
DGENRE=Soul
TTITLE0=You ain't got to hide your man
TTITLE1=If you're weak enough
TTITLE2=Good loving man
TTITLE3=One more time
TTITLE4=You ain't woman enought o take my man
TTITLE5=Put your money where your mouth is
TTITLE6=Talk to me
TTITLE7=Sprung on his love
TTITLE8=Better you go your way
TTITLE9=Leftover love
EXTD=
EXTT0=
EXTT1=
EXTT2=
EXTT3=
EXTT4=
EXTT5=
EXTT6=
EXTT7=
EXTT8=
EXTT9=
PLAYORDER=
